<?xml version="1.0" encoding="utf-8"?>
<!-- Generator: Adobe Illustrator 19.2.1, SVG Export Plug-In . SVG Version: 6.00 Build 0)  -->
<svg version="1.1" xmlns="http://www.w3.org/2000/svg" xmlns:xlink="http://www.w3.org/1999/xlink" x="0px" y="0px"
	 viewBox="0 0 573 718.5" style="enable-background:new 0 0 573 718.5;" xml:space="preserve">
<style type="text/css">
	.st0{enable-background:new    ;}
	.st1{fill-rule:evenodd;clip-rule:evenodd;fill:#FFF200;}
	.st2{fill:#222222;}
	.st3{fill-rule:evenodd;clip-rule:evenodd;fill:#222222;}
	.st4{fill-rule:evenodd;clip-rule:evenodd;fill:#666666;}
</style>
<g id="Rectangle_3_5_" class="st0">
	<g>
		
			<rect x="311.5" y="196.4" transform="matrix(0.9733 -0.2294 0.2294 0.9733 -63.197 110.1065)" class="st1" width="261" height="260.9"/>
		<path class="st2" d="M536.1,174.8l58,246.2l-246.2,58l-58-246.2L536.1,174.8 M542.1,165.2l-261.8,61.7l61.7,261.7l261.8-61.7
			L542.1,165.2L542.1,165.2z"/>
	</g>
</g>
<g id="Rectangle_3_4_" class="st0">
	<g>
		
			<rect x="-99.3" y="376.6" transform="matrix(0.3268 -0.9451 0.9451 0.3268 -456.417 360.0218)" class="st1" width="247.6" height="247.5"/>
		<path class="st2" d="M-49.5,348l226.4,78.3L98.5,652.7l-226.4-78.3L-49.5,348 M-54.5,337.9L-138,579.4l241.5,83.5L187,421.4
			L-54.5,337.9L-54.5,337.9z"/>
	</g>
</g>
<g id="Group_2_1_">
	<g>
		
			<rect x="311.5" y="386.4" transform="matrix(0.7366 -0.6764 0.6764 0.7366 -233.1681 435.1277)" class="st1" width="261" height="260.9"/>
		<path class="st2" d="M449.6,338.2l171.1,186.3L434.4,695.6L263.3,509.3L449.6,338.2 M450.1,326.9L252,508.8l181.9,198.1L632,525
			L450.1,326.9L450.1,326.9z"/>
	</g>
	<g id="Will_automation_put_an_end_to_the_American_trucker_x3F_">
		<g>
			<path class="st3" d="M345.4,470.7h4l3.1-12.2h0.1l3.1,12.2h3.9l3.5-16.4h1v-2.4h-5.5v2.4h1.5l-2.2,10.7h-0.1l-3.3-13h-2.7
				l-3.3,13h-0.1l-2.2-10.7h1.5v-2.4h-6.6v2.4h1L345.4,470.7z M370.9,468.3h-1.3v-12.5h-5v2.5h1.3v10h-1.3v2.4h6.3V468.3z
				 M369.6,451.5h-3.8v2.8h3.8V451.5z M378,468.3h-1.2v-17.4h-4.9v2.4h1.2v15.1h-1.2v2.4h6.2V468.3z M385.1,468.3h-1.2v-17.4h-4.9
				v2.4h1.2v15.1h-1.2v2.4h6.2V468.3z M395.1,470.9c1.6,0,3.1-0.6,3.9-1.8h0.1c0.2,1.1,0.9,1.8,2.7,1.8c0.9,0,1.5-0.2,1.9-0.3v-2.2
				h-0.5c-0.6,0-0.8-0.2-0.8-1v-7.7c0-3.1-1.8-4.2-5-4.2c-2.3,0-4.1,0.5-5.4,1v2.5c1-0.3,2.3-0.5,3.7-0.5c2.1,0,2.9,0.5,2.9,1.9v1.3
				l-3.4,0.5c-2.4,0.4-4.4,1.4-4.4,4v0.7C391,469.6,392.4,470.9,395.1,470.9z M394.6,466c0-1.4,0.9-1.9,2.2-2l2-0.1v3.8
				c-0.6,0.5-1.4,0.9-2.2,0.9c-1.2,0-1.9-0.6-1.9-1.7V466z M405.6,467.2c0,2.4,1.1,3.7,3.9,3.7c1.9,0,3.4-0.7,4.5-1.6h0.1v1.4h4.8
				v-2.4h-1.2v-12.5h-4.9v2.5h1.2v8.9c-0.8,0.6-1.8,0.9-2.8,0.9c-1.3,0-1.9-0.5-1.9-1.9v-10.5h-4.9v2.5h1.2V467.2z M421.1,467.5
				c0,2.5,1.2,3.4,3.6,3.4c1.1,0,2.1-0.2,2.7-0.4v-2.2h-1.3c-0.9,0-1.3-0.4-1.3-1.4v-8.6h2.6v-2.5h-2.6v-3.1h-3.7v3.1h-1.4v2.5h1.4
				V467.5z M434.8,470.9c3.9,0,6.7-2.3,6.7-7.2v-1c0-4.9-2.8-7.2-6.7-7.2c-3.9,0-6.6,2.3-6.6,7.2v1
				C428.2,468.6,430.9,470.9,434.8,470.9z M432,462.3c0-3,1.1-4.1,2.8-4.1c1.7,0,2.8,1,2.8,4.1v2c0,3-1.1,4-2.8,4
				c-1.7,0-2.8-1-2.8-4V462.3z M448.4,468.3h-0.9v-9.1c0.9-0.5,1.7-0.8,2.6-0.8c1.2,0,1.7,0.5,1.7,1.8v8.2H451v2.4h5.5v-2.4h-0.9
				v-8.1c0-0.4,0-0.7,0-1c0.8-0.5,1.7-0.9,2.6-0.9c1.2,0,1.7,0.5,1.7,1.8v8.2h-0.9v2.4h5.8v-2.4h-1.2v-9.4c0-2.4-1.4-3.4-3.6-3.4
				c-2,0-3.4,0.8-4.6,1.9h-0.1c-0.5-1.3-1.7-1.9-3.4-1.9c-2,0-3.3,0.8-4.5,1.8h-0.1v-1.5h-4.8v2.5h1.2v10h-1.2v2.4h5.8V468.3z
				 M470,470.9c1.6,0,3.1-0.6,3.9-1.8h0.1c0.2,1.1,0.9,1.8,2.7,1.8c0.9,0,1.5-0.2,1.9-0.3v-2.2h-0.5c-0.6,0-0.8-0.2-0.8-1v-7.7
				c0-3.1-1.8-4.2-5-4.2c-2.3,0-4.1,0.5-5.4,1v2.5c1-0.3,2.3-0.5,3.7-0.5c2.1,0,2.9,0.5,2.9,1.9v1.3l-3.4,0.5
				c-2.4,0.4-4.4,1.4-4.4,4v0.7C465.9,469.6,467.3,470.9,470,470.9z M469.5,466c0-1.4,0.9-1.9,2.2-2l2-0.1v3.8
				c-0.6,0.5-1.4,0.9-2.2,0.9c-1.2,0-1.9-0.6-1.9-1.7V466z M480.7,467.5c0,2.5,1.2,3.4,3.6,3.4c1.1,0,2.1-0.2,2.7-0.4v-2.2h-1.3
				c-0.9,0-1.3-0.4-1.3-1.4v-8.6h2.6v-2.5h-2.6v-3.1h-3.7v3.1h-1.4v2.5h1.4V467.5z M494.2,468.3h-1.3v-12.5h-5v2.5h1.3v10h-1.3v2.4
				h6.3V468.3z M492.9,451.5h-3.8v2.8h3.8V451.5z M501.9,470.9c3.9,0,6.7-2.3,6.7-7.2v-1c0-4.9-2.8-7.2-6.7-7.2
				c-3.9,0-6.6,2.3-6.6,7.2v1C495.3,468.6,498,470.9,501.9,470.9z M499.1,462.3c0-3,1.1-4.1,2.8-4.1c1.7,0,2.8,1,2.8,4.1v2
				c0,3-1.1,4-2.8,4c-1.7,0-2.8-1-2.8-4V462.3z M515.5,468.3h-0.9v-9.1c0.8-0.6,1.9-0.9,2.8-0.9c1.3,0,1.9,0.4,1.9,1.8v8.2h-0.9v2.4
				h5.8v-2.4H523v-9.5c0-2.4-1.5-3.4-3.8-3.4c-2,0-3.6,0.8-4.7,1.9h-0.1v-1.6h-4.8v2.5h1.2v10h-1.2v2.4h5.9V468.3z M348.7,498.1
				c4.2,0,6.2-2.1,6.2-7.1v-1.1c0-5.7-2.1-7-5.2-7c-1.6,0-3.1,0.7-3.9,1.7h-0.1v-1.4h-4.7v2.5h1.2v14.4h-1.2v2.3h6.4v-2.3h-1.6v-2.6
				C346.5,497.9,347.7,498.1,348.7,498.1z M345.9,486.9c0.7-0.6,1.6-1,2.5-1c1.8,0,2.8,0.7,2.8,3.9v1.8c0,3.1-1.3,4.1-2.9,4.1
				c-0.9,0-1.8-0.1-2.4-0.6V486.9z M365.5,496.7h0.1v1.4h4.8v-2.4h-1.2v-12.5h-4.9v2.5h1.2v8.9c-0.8,0.6-1.8,0.9-2.8,0.9
				c-1.3,0-1.9-0.5-1.9-1.9v-10.5h-4.9v2.5h1.2v8.9c0,2.4,1.1,3.7,3.9,3.7C362.9,498.4,364.3,497.7,365.5,496.7z M372.6,494.9
				c0,2.5,1.2,3.4,3.6,3.4c1.1,0,2.1-0.2,2.7-0.4v-2.2h-1.3c-0.9,0-1.3-0.4-1.3-1.4v-8.6h2.6v-2.5h-2.6v-3.1h-3.7v3.1h-1.4v2.5h1.4
				V494.9z M389.1,489.6c-2.4,0.4-4.4,1.4-4.4,4v0.7c0,2.6,1.5,3.9,4.2,3.9c1.6,0,3.1-0.6,3.9-1.8h0.1c0.2,1.1,0.9,1.8,2.7,1.8
				c0.9,0,1.5-0.2,1.9-0.3v-2.2h-0.5c-0.6,0-0.8-0.2-0.8-1v-7.7c0-3.1-1.8-4.2-5-4.2c-2.3,0-4.1,0.5-5.4,1v2.5
				c1-0.3,2.3-0.5,3.7-0.5c2.1,0,2.9,0.5,2.9,1.9v1.3L389.1,489.6z M392.5,495c-0.6,0.5-1.4,0.9-2.2,0.9c-1.2,0-1.9-0.6-1.9-1.7
				v-0.8c0-1.4,0.9-1.9,2.2-2l2-0.1V495z M413,495.7h-1.2v-9.5c0-2.4-1.5-3.4-3.8-3.4c-2,0-3.6,0.8-4.7,1.9h-0.1v-1.6h-4.8v2.5h1.2
				v10h-1.2v2.4h5.9v-2.4h-0.9v-9.1c0.8-0.6,1.9-0.9,2.8-0.9c1.3,0,1.9,0.4,1.9,1.8v8.2h-0.9v2.4h5.8V495.7z M431.5,489.6
				c0-4.6-2.2-6.7-6-6.7c-4,0-6.6,2.4-6.6,7.1v1.3c0,4.7,2.3,7,7.2,7c2.3,0,4-0.5,5.1-1.2v-2.3c-1.1,0.4-2.4,0.8-4.3,0.8
				c-2.6,0-4.1-1-4.2-4.1h8.8V489.6z M428,489.4h-5.4c0-2.9,1.3-3.9,2.9-3.9c1.5,0,2.5,0.9,2.5,3.5V489.4z M437.4,484.8v-1.6h-4.8
				v2.5h1.2v10h-1.2v2.4h5.9v-2.4h-0.9v-9.1c0.8-0.6,1.9-0.9,2.8-0.9c1.3,0,1.9,0.4,1.9,1.8v8.2h-0.9v2.4h5.8v-2.4h-1.2v-9.5
				c0-2.4-1.5-3.4-3.8-3.4c-2,0-3.6,0.8-4.7,1.9H437.4z M462.2,498.1v-2.4H461v-17.4h-5.1v2.5h1.4v3.1h-0.1
				c-0.8-0.6-2.1-0.9-3.5-0.9c-3,0-5.5,2-5.5,7v1.3c0,5,1.7,6.9,5.4,6.9c1.9,0,3.2-0.6,4.1-1.6h0.1v1.4H462.2z M457.3,494.8
				c-0.7,0.6-1.5,1-2.5,1c-1.7,0-2.8-0.9-2.8-3.9v-2.1c0-3.1,1.2-4.1,2.9-4.1c0.9,0,1.7,0.2,2.4,0.8V494.8z M469.4,494.9
				c0,2.5,1.2,3.4,3.6,3.4c1.1,0,2.1-0.2,2.7-0.4v-2.2h-1.3c-0.9,0-1.3-0.4-1.3-1.4v-8.6h2.6v-2.5h-2.6v-3.1h-3.7v3.1h-1.4v2.5h1.4
				V494.9z M476.5,490.1v1c0,4.9,2.7,7.2,6.6,7.2c3.9,0,6.7-2.3,6.7-7.2v-1c0-4.9-2.8-7.2-6.7-7.2
				C479.2,482.9,476.5,485.2,476.5,490.1z M485.9,489.7v2c0,3-1.1,4-2.8,4c-1.7,0-2.8-1-2.8-4v-2c0-3,1.1-4.1,2.8-4.1
				C484.8,485.7,485.9,486.7,485.9,489.7z M503.4,485.7v-2.5h-2.6v-3.1h-3.7v3.1h-1.4v2.5h1.4v9.2c0,2.5,1.2,3.4,3.6,3.4
				c1.1,0,2.1-0.2,2.7-0.4v-2.2h-1.3c-0.9,0-1.3-0.4-1.3-1.4v-8.6H503.4z M504.3,478.3v2.4h1.2v15.1h-1.2v2.4h5.9v-2.4h-0.9v-9.1
				c0.8-0.6,1.9-0.9,2.8-0.9c1.3,0,1.9,0.4,1.9,1.8v8.2H513v2.4h5.8v-2.4h-1.2v-9.5c0-2.4-1.5-3.4-3.8-3.4c-2,0-3.6,0.8-4.7,1.9
				h-0.1v-6.5H504.3z M519.9,490v1.3c0,4.7,2.3,7,7.2,7c2.3,0,4-0.5,5.1-1.2v-2.3c-1.1,0.4-2.4,0.8-4.3,0.8c-2.6,0-4.1-1-4.2-4.1
				h8.8v-2c0-4.6-2.2-6.7-6-6.7C522.5,482.9,519.9,485.3,519.9,490z M526.5,485.5c1.5,0,2.5,0.9,2.5,3.5v0.4h-5.4
				C523.6,486.5,524.9,485.5,526.5,485.5z M351.6,506.8h-4.3l-5.3,16.4h-1v2.4h5.5v-2.4H345l0.9-3.2h5.5l0.9,3.2H351v2.4h6.8v-2.4
				h-1L351.6,506.8z M346.6,517.6l2.1-6.9h0.1l2,6.9H346.6z M379.7,513.7c0-2.4-1.4-3.4-3.6-3.4c-2,0-3.4,0.8-4.6,1.9h-0.1
				c-0.5-1.3-1.7-1.9-3.4-1.9c-2,0-3.3,0.8-4.5,1.8h-0.1v-1.5h-4.8v2.5h1.2v10h-1.2v2.4h5.8v-2.4h-0.9V514c0.9-0.5,1.7-0.8,2.6-0.8
				c1.2,0,1.7,0.5,1.7,1.8v8.2H367v2.4h5.5v-2.4h-0.9V515c0-0.4,0-0.7,0-1c0.8-0.5,1.7-0.9,2.6-0.9c1.2,0,1.7,0.5,1.7,1.8v8.2h-0.9
				v2.4h5.8v-2.4h-1.2V513.7z M388.5,510.3c-4,0-6.6,2.4-6.6,7.1v1.3c0,4.7,2.3,7,7.2,7c2.3,0,4-0.5,5.1-1.2v-2.3
				c-1.1,0.4-2.4,0.8-4.3,0.8c-2.6,0-4.1-1-4.2-4.1h8.8v-2C394.5,512.3,392.3,510.3,388.5,510.3z M391.1,516.8h-5.4
				c0-2.9,1.3-3.9,2.9-3.9c1.5,0,2.5,0.9,2.5,3.5V516.8z M400.5,512.9h-0.1v-2.3h-4.8v2.5h1.3v10h-1.2v2.4h6.4v-2.4h-1.5v-8
				c0.9-0.8,2.7-1.4,4.1-1.4v-3.3C402.9,510.6,401.4,511.4,400.5,512.9z M410.6,510.6h-5v2.5h1.3v10h-1.3v2.4h6.3v-2.4h-1.3V510.6z
				 M406.7,509.2h3.8v-2.8h-3.8V509.2z M416.8,518.7v-1.8c0-3.1,1.6-3.9,3.2-3.9c0.7,0,1.2,0.1,1.6,0.2v2h2.7v-4.2
				c-0.9-0.4-2.9-0.6-4.7-0.6c-3.8,0-6.8,2.1-6.8,7.1v1.5c0,4.4,2.6,6.8,6.8,6.8c2.1,0,3.6-0.5,4.7-1.1v-2.3
				c-0.8,0.4-2.2,0.8-3.6,0.8C418.4,523.1,416.8,522,416.8,518.7z M437.1,522.2v-7.7c0-3.1-1.8-4.2-5-4.2c-2.3,0-4.1,0.5-5.4,1v2.5
				c1-0.3,2.3-0.5,3.7-0.5c2.1,0,2.9,0.5,2.9,1.9v1.3L430,517c-2.4,0.4-4.4,1.4-4.4,4v0.7c0,2.6,1.5,3.9,4.2,3.9
				c1.6,0,3.1-0.6,3.9-1.8h0.1c0.2,1.1,0.9,1.8,2.7,1.8c0.9,0,1.5-0.2,1.9-0.3v-2.2H438C437.4,523.2,437.1,522.9,437.1,522.2z
				 M433.4,522.5c-0.6,0.5-1.4,0.9-2.2,0.9c-1.2,0-1.9-0.6-1.9-1.7v-0.8c0-1.4,0.9-1.9,2.2-2l2-0.1V522.5z M452.7,513.7
				c0-2.4-1.5-3.4-3.8-3.4c-2,0-3.6,0.8-4.7,1.9h-0.1v-1.6h-4.8v2.5h1.2v10h-1.2v2.4h5.9v-2.4h-0.9v-9.1c0.8-0.6,1.9-0.9,2.8-0.9
				c1.3,0,1.9,0.4,1.9,1.8v8.2H448v2.4h5.8v-2.4h-1.2V513.7z M464.7,507.5H461v3.1h-1.4v2.5h1.4v9.2c0,2.5,1.2,3.4,3.6,3.4
				c1.1,0,2.1-0.2,2.7-0.4v-2.2H466c-0.9,0-1.3-0.4-1.3-1.4v-8.6h2.6v-2.5h-2.6V507.5z M473.1,512.9H473v-2.3h-4.8v2.5h1.3v10h-1.2
				v2.4h6.4v-2.4h-1.5v-8c0.9-0.8,2.7-1.4,4.1-1.4v-3.3C475.4,510.6,474,511.4,473.1,512.9z M491.5,510.6h-4.9v2.5h1.2v8.9
				c-0.8,0.6-1.8,0.9-2.8,0.9c-1.3,0-1.9-0.5-1.9-1.9v-10.5h-4.9v2.5h1.2v8.9c0,2.4,1.1,3.7,3.9,3.7c1.9,0,3.4-0.7,4.5-1.6h0.1v1.4
				h4.8v-2.4h-1.2V510.6z M497.6,518.7v-1.8c0-3.1,1.6-3.9,3.2-3.9c0.7,0,1.2,0.1,1.6,0.2v2h2.7v-4.2c-0.9-0.4-2.9-0.6-4.7-0.6
				c-3.8,0-6.8,2.1-6.8,7.1v1.5c0,4.4,2.6,6.8,6.8,6.8c2.1,0,3.6-0.5,4.7-1.1v-2.3c-0.8,0.4-2.2,0.8-3.6,0.8
				C499.2,523.1,497.6,522,497.6,518.7z M515.3,516.7l3.6-3.6h1.1v-2.5h-5.6v2.5h1.2l-4.4,4.5v-11.8h-4.9v2.4h1.2v15.1h-1.2v2.4h6
				v-2.4h-1.1v-2.9l1.3-1.2l3.8,6.4h3.9v-2.4h-1L515.3,516.7z M527.4,510.3c-4,0-6.6,2.4-6.6,7.1v1.3c0,4.7,2.3,7,7.2,7
				c2.3,0,4-0.5,5.1-1.2v-2.3c-1.1,0.4-2.4,0.8-4.3,0.8c-2.6,0-4.1-1-4.2-4.1h8.8v-2C533.4,512.3,531.2,510.3,527.4,510.3z
				 M529.9,516.8h-5.4c0-2.9,1.3-3.9,2.9-3.9c1.5,0,2.5,0.9,2.5,3.5V516.8z M539.4,512.9h-0.1v-2.3h-4.8v2.5h1.3v10h-1.2v2.4h6.4
				v-2.4h-1.5v-8c0.9-0.8,2.7-1.4,4.1-1.4v-3.3C541.7,510.6,540.3,511.4,539.4,512.9z M546.1,525.5h3.4v-3.3h-3.4V525.5z
				 M549.1,506.6c-2.1,0-3.5,0.3-4.7,1v2.4c1-0.4,2-0.5,3.1-0.5c1.7,0,2.9,0.4,2.9,2v0.4c0,1.6-0.9,2.2-2.1,3.1
				c-1.6,1.3-2,2.4-2,4.1v1.2h3.1v-0.8c0-1.5,0.6-2.1,2.1-3.1c1.8-1.2,2.9-2.2,2.9-4.7v-0.7C554.4,507.7,552.1,506.6,549.1,506.6z"
				/>
		</g>
	</g>
	<g id="Dominic_Rushe_in_Walcott_x2C__Iowa">
		<g>
			<path class="st4" d="M357.2,547.9v-1.6c0-5.9-2.7-8.5-8.3-8.5H341v2.4h1.3v14H341v2.4h8.1C354.6,556.5,357.2,553.9,357.2,547.9z
				 M346.4,554v-13.7h2.4c2.7,0,4.2,1.1,4.2,5v3.5c0,4-1.5,5.2-4.2,5.2H346.4z M365.2,556.7c3.9,0,6.7-2.3,6.7-7.2v-1
				c0-4.9-2.8-7.2-6.7-7.2c-3.9,0-6.6,2.3-6.6,7.2v1C358.6,554.4,361.3,556.7,365.2,556.7z M362.4,548.1c0-3,1.1-4.1,2.8-4.1
				c1.7,0,2.8,1,2.8,4.1v2c0,3-1.1,4-2.8,4c-1.7,0-2.8-1-2.8-4V548.1z M378.8,554.1h-0.9V545c0.9-0.5,1.7-0.8,2.6-0.8
				c1.2,0,1.7,0.5,1.7,1.8v8.2h-0.9v2.4h5.5v-2.4H386V546c0-0.4,0-0.7,0-1c0.8-0.5,1.7-0.9,2.6-0.9c1.2,0,1.7,0.5,1.7,1.8v8.2h-0.9
				v2.4h5.8v-2.4h-1.2v-9.4c0-2.4-1.4-3.4-3.6-3.4c-2,0-3.4,0.8-4.6,1.9h-0.1c-0.5-1.3-1.7-1.9-3.4-1.9c-2,0-3.3,0.8-4.5,1.8h-0.1
				v-1.5H373v2.5h1.2v10H373v2.4h5.8V554.1z M402.4,554.1h-1.3v-12.5h-5v2.5h1.3v10h-1.3v2.4h6.3V554.1z M401.2,537.3h-3.8v2.8h3.8
				V537.3z M413,546v8.2H412v2.4h5.8v-2.4h-1.2v-9.5c0-2.4-1.5-3.4-3.8-3.4c-2,0-3.6,0.8-4.7,1.9h-0.1v-1.6h-4.8v2.5h1.2v10h-1.2
				v2.4h5.9v-2.4h-0.9V545c0.8-0.6,1.9-0.9,2.8-0.9C412.4,544.1,413,544.6,413,546z M423.8,537.3h-3.8v2.8h3.8V537.3z M425.1,554.1
				h-1.3v-12.5h-5v2.5h1.3v10h-1.3v2.4h6.3V554.1z M429.9,549.6v-1.8c0-3.1,1.6-3.9,3.2-3.9c0.7,0,1.2,0.1,1.6,0.2v2h2.7v-4.2
				c-0.9-0.4-2.9-0.6-4.7-0.6c-3.8,0-6.8,2.1-6.8,7.1v1.5c0,4.4,2.6,6.8,6.8,6.8c2.1,0,3.6-0.5,4.7-1.1v-2.3
				c-0.8,0.4-2.2,0.8-3.6,0.8C431.6,554.1,429.9,553,429.9,549.6z M450.4,554.1H449v-5.3h2.1l3.9,7.7h4.3v-2.4h-1l-3.3-6.2
				c2.1-0.7,3-2.4,3-4.6v-0.6c0-2.7-1.5-4.9-6.2-4.9h-8.2v2.4h1.3v14h-1.3v2.4h6.7V554.1z M449,540.2h1.9c2.2,0,3,0.6,3,2.6v0.9
				c0,2-1.1,2.8-2.9,2.8h-2V540.2z M461.1,553c0,2.4,1.1,3.7,3.9,3.7c1.9,0,3.4-0.7,4.5-1.6h0.1v1.4h4.8v-2.4h-1.2v-12.5h-4.9v2.5
				h1.2v8.9c-0.8,0.6-1.8,0.9-2.8,0.9c-1.3,0-1.9-0.5-1.9-1.9v-10.5h-4.9v2.5h1.2V553z M486.2,552c0-2.5-1.4-3.7-3.9-4.4l-1.3-0.4
				c-1.5-0.4-2.1-0.8-2.1-1.9c0-1,0.6-1.6,2.2-1.6c0.9,0,1.4,0.1,1.7,0.2v1.4h2.7v-3.4c-1.1-0.4-2.6-0.6-4.4-0.6
				c-4.1,0-5.7,1.8-5.7,4.4c0,2.4,1.1,3.8,3.6,4.5l1.4,0.4c1.4,0.4,2.1,0.8,2.1,2c0,1.2-0.8,1.9-2.5,1.9c-0.8,0-1.4-0.1-1.9-0.3
				v-1.5h-2.8v3.5c1.1,0.4,2.8,0.6,4.8,0.6C484.2,556.7,486.2,555,486.2,552z M500.5,544.7c0-2.4-1.5-3.4-3.8-3.4
				c-2,0-3.6,0.8-4.7,1.9H492v-6.5h-4.8v2.4h1.2v15.1h-1.2v2.4h5.9v-2.4h-0.9V545c0.8-0.6,1.9-0.9,2.8-0.9c1.3,0,1.9,0.4,1.9,1.8
				v8.2h-0.9v2.4h5.8v-2.4h-1.2V544.7z M509.3,541.3c-4,0-6.6,2.4-6.6,7.1v1.3c0,4.7,2.3,7,7.2,7c2.3,0,4-0.5,5.1-1.2v-2.3
				c-1.1,0.4-2.4,0.8-4.3,0.8c-2.6,0-4.1-1-4.2-4.1h8.8v-2C515.3,543.3,513,541.3,509.3,541.3z M511.8,547.8h-5.4
				c0-2.9,1.3-3.9,2.9-3.9c1.5,0,2.5,0.9,2.5,3.5V547.8z M526.3,541.6h-5v2.5h1.3v10h-1.3v2.4h6.3v-2.4h-1.3V541.6z M526.3,537.3
				h-3.8v2.8h3.8V537.3z M541.8,554.1v-9.5c0-2.4-1.5-3.4-3.8-3.4c-2,0-3.6,0.8-4.7,1.9h-0.1v-1.6h-4.8v2.5h1.2v10h-1.2v2.4h5.9
				v-2.4h-0.9V545c0.8-0.6,1.9-0.9,2.8-0.9c1.3,0,1.9,0.4,1.9,1.8v8.2h-0.9v2.4h5.8v-2.4H541.8z M364,565.2h-5.5v2.4h1.5l-2.2,10.7
				h-0.1l-3.3-13h-2.7l-3.3,13h-0.1l-2.2-10.7h1.5v-2.4h-6.6v2.4h1l3.5,16.4h4l3.1-12.2h0.1l3.1,12.2h3.9l3.5-16.4h1V565.2z
				 M375.3,580.6v-7.7c0-3.1-1.8-4.2-5-4.2c-2.3,0-4.1,0.5-5.4,1v2.5c1-0.3,2.3-0.5,3.7-0.5c2.1,0,2.9,0.5,2.9,1.9v1.3l-3.4,0.5
				c-2.4,0.4-4.4,1.4-4.4,4v0.7c0,2.6,1.5,3.9,4.2,3.9c1.6,0,3.1-0.6,3.9-1.8h0.1c0.2,1.1,0.9,1.8,2.7,1.8c0.9,0,1.5-0.2,1.9-0.3
				v-2.2h-0.5C375.5,581.5,375.3,581.3,375.3,580.6z M371.6,580.8c-0.6,0.5-1.4,0.9-2.2,0.9c-1.2,0-1.9-0.6-1.9-1.7v-0.8
				c0-1.4,0.9-1.9,2.2-2l2-0.1V580.8z M382.4,564.1h-4.9v2.4h1.2v15.1h-1.2v2.4h6.2v-2.4h-1.2V564.1z M388.6,577.1v-1.8
				c0-3.1,1.6-3.9,3.2-3.9c0.7,0,1.2,0.1,1.6,0.2v2h2.7v-4.2c-0.9-0.4-2.9-0.6-4.7-0.6c-3.8,0-6.8,2.1-6.8,7.1v1.5
				c0,4.4,2.6,6.8,6.8,6.8c2.1,0,3.6-0.5,4.7-1.1v-2.3c-0.8,0.4-2.2,0.8-3.6,0.8C390.2,581.5,388.6,580.4,388.6,577.1z M404,568.7
				c-3.9,0-6.6,2.3-6.6,7.2v1c0,4.9,2.7,7.2,6.6,7.2s6.7-2.3,6.7-7.2v-1C410.6,571,407.8,568.7,404,568.7z M406.8,577.5
				c0,3-1.1,4-2.8,4c-1.7,0-2.8-1-2.8-4v-2c0-3,1.1-4.1,2.8-4.1c1.7,0,2.8,1,2.8,4.1V577.5z M416.6,565.9h-3.7v3.1h-1.4v2.5h1.4v9.2
				c0,2.5,1.2,3.4,3.6,3.4c1.1,0,2.1-0.2,2.7-0.4v-2.2h-1.3c-0.9,0-1.3-0.4-1.3-1.4v-8.6h2.6V569h-2.6V565.9z M425.2,565.9h-3.7v3.1
				H420v2.5h1.4v9.2c0,2.5,1.2,3.4,3.6,3.4c1.1,0,2.1-0.2,2.7-0.4v-2.2h-1.3c-0.9,0-1.3-0.4-1.3-1.4v-8.6h2.6V569h-2.6V565.9z
				 M429,583.9h1.6c-0.1,1.1-0.6,1.8-1.8,2.1v1.6c2.4-0.4,3.7-1.5,3.7-4.5v-2.7H429V583.9z M438.8,567.5h1.4v14h-1.4v2.4h6.9v-2.4
				h-1.4v-14h1.4v-2.4h-6.9V567.5z M453.3,568.7c-3.9,0-6.6,2.3-6.6,7.2v1c0,4.9,2.7,7.2,6.6,7.2c3.9,0,6.7-2.3,6.7-7.2v-1
				C459.9,571,457.1,568.7,453.3,568.7z M456.1,577.5c0,3-1.1,4-2.8,4c-1.7,0-2.8-1-2.8-4v-2c0-3,1.1-4.1,2.8-4.1
				c1.7,0,2.8,1,2.8,4.1V577.5z M476,571.5h1l-1.7,8.1h-0.1l-2.6-10.6h-3.1l-2.6,10.6h-0.1l-1.7-8.1h1V569h-5.7v2.5h0.8l2.9,12.4
				h4.1l2.4-9.3h0.1l2.3,9.3h4l3.1-12.4h0.8V569H476V571.5z M492.9,580.6v-7.7c0-3.1-1.8-4.2-5-4.2c-2.3,0-4.1,0.5-5.4,1v2.5
				c1-0.3,2.3-0.5,3.7-0.5c2.1,0,2.9,0.5,2.9,1.9v1.3l-3.4,0.5c-2.4,0.4-4.4,1.4-4.4,4v0.7c0,2.6,1.5,3.9,4.2,3.9
				c1.6,0,3.1-0.6,3.9-1.8h0.1c0.2,1.1,0.9,1.8,2.7,1.8c0.9,0,1.5-0.2,1.9-0.3v-2.2h-0.5C493.1,581.5,492.9,581.3,492.9,580.6z
				 M489.1,580.8c-0.6,0.5-1.4,0.9-2.2,0.9c-1.2,0-1.9-0.6-1.9-1.7v-0.8c0-1.4,0.9-1.9,2.2-2l2-0.1V580.8z"/>
		</g>
	</g>
</g>
<g id="Group_3_1_">
	<g>
		
			<rect x="23.5" y="92.4" transform="matrix(0.7158 -0.6983 0.6983 0.7158 -129.6821 213.1365)" class="st1" width="347" height="347"/>
		<path class="st2" d="M200,26.2l236.7,242.6L194,505.6L-42.7,262.9L200,26.2 M200.1,14.9L-54,262.8l247.9,254.1L448,269L200.1,14.9
			L200.1,14.9z"/>
	</g>
	<g id="End_of_1_">
		<g>
			<path class="st3" d="M74,257.1H56.4v-19.8H64v5.2h8.5v-19.3H64v5.1h-7.6v-18h17.5v8.5h10.8v-17H38.1v8h4.4v47.7h-4.4v8h47v-18.1
				H74V257.1z M134.4,225.4c0-8-5.2-11.5-12.8-11.5c-6.9,0-12.1,2.7-15.9,6.4h-0.4v-5.4H89v8.5h4.1v34.1H89v8h19.9v-8h-3.1v-30.9
				c2.8-1.9,6.5-3,9.6-3c4.3,0,6.4,1.5,6.4,6.2v27.7h-3.2v8h19.8v-8h-4V225.4z M185.7,198.4h-17.4v8.5h4.7v10.7h-0.4
				c-2.8-1.9-7.2-3-12-3c-10.2,0-18.7,6.7-18.7,23.7v4.5c0,17.1,5.8,23.6,18.2,23.6c6.4,0,10.8-1.9,13.9-5.3h0.4v4.6h15.4v-8h-4.1
				V198.4z M173,254.5c-2.3,2.1-5.1,3.4-8.5,3.4c-5.8-0.1-9.4-3.2-9.4-13.4v-7.1c0-10.4,4.2-13.9,9.9-13.9c3.1,0,5.8,0.8,8,2.7
				V254.5z M232.4,213.9c-13.2,0-22.5,7.9-22.5,24.6v3.3c0,16.8,9.3,24.5,22.5,24.5c13.2,0,22.6-7.7,22.6-24.5v-3.3
				C255,221.8,245.6,213.9,232.4,213.9z M242.1,243.8c0,10.3-3.8,13.7-9.6,13.7c-5.8,0-9.6-3.4-9.6-13.7V237
				c0-10.3,3.8-13.8,9.6-13.8c5.9,0,9.6,3.5,9.6,13.8V243.8z M280.8,206h4.3v-7.5c-1.3-0.4-4.2-0.8-7.5-0.8
				c-9.5,0-14.8,3.4-14.8,12.7v4.6h-4v8.5h4v34.1h-4v8h21.9v-8h-5.1v-34.1h6.2v-8.5h-6.2v-3.4C275.4,207.4,277.6,206,280.8,206z"/>
		</g>
	</g>
	<g id="the_road_1_">
		<g>
			<path class="st3" d="M55.7,278.4H43.1V289h-4.9v8.5h4.9v31.1c0,8.6,4.2,11.7,12.1,11.7c3.6,0,7.3-0.6,9.3-1.3v-7.4h-4.3
				c-3.1,0-4.5-1.5-4.5-4.9v-29.2h8.8V289h-8.8V278.4z M112.8,299.5c0-8-5.2-11.5-12.8-11.5c-6.9,0-12.1,2.7-15.9,6.4h-0.4v-22H67.4
				v8h4.1v51.2h-4.1v8h19.9v-8h-3.1v-30.9c2.8-1.9,6.5-3,9.6-3c4.3,0,6.4,1.5,6.4,6.2v27.7H97v8h19.8v-8h-4V299.5z M142.7,288
				c-13.5,0-22.3,8-22.3,24.2v4.5c0,15.9,7.7,23.8,24.4,23.8c7.7,0,13.7-1.8,17.2-4v-7.7c-3.7,1.5-8.3,2.6-14.5,2.6
				c-9,0-14.1-3.5-14.2-13.8h29.9v-6.9C163.1,294.9,155.4,288,142.7,288z M151.3,310.1h-18.4c0-9.7,4.4-13.1,9.8-13.1
				c5.2,0,8.5,3,8.5,11.8V310.1z M200,296.7h-0.4V289h-16.4v8.5h4.3v34.1h-4.2v8h21.9v-8h-5v-27.1c3.2-2.8,9.2-4.6,14-4.6v-11.2
				C207.9,288.9,203.1,291.7,200,296.7z M238.8,288c-13.2,0-22.5,7.9-22.5,24.6v3.3c0,16.8,9.3,24.5,22.5,24.5
				c13.2,0,22.6-7.7,22.6-24.5v-3.3C261.4,295.9,251.9,288,238.8,288z M248.4,317.9c0,10.3-3.8,13.7-9.6,13.7
				c-5.8,0-9.6-3.4-9.6-13.7v-6.8c0-10.3,3.8-13.8,9.6-13.8c5.9,0,9.6,3.5,9.6,13.8V317.9z M304.7,328.3v-26
				c0-10.4-6.1-14.3-17-14.3c-7.8,0-14.1,1.7-18.4,3.4v8.4c3.3-0.9,7.9-1.7,12.7-1.7c7.2,0,10,1.6,10,6.4v4.5l-11.5,1.8
				c-8.3,1.3-14.9,4.7-14.9,13.6v2.5c0,9,5,13.4,14.2,13.4c5.5,0,10.7-2.2,13.3-6.2h0.4c0.6,3.8,3,6,9.2,6c3.2,0,5.1-0.6,6.5-1.1
				v-7.4h-1.7C305.5,331.6,304.7,330.9,304.7,328.3z M292,329.2c-1.9,1.8-4.7,3.1-7.6,3.1c-4.1,0-6.5-2-6.5-5.9v-2.8
				c0-4.8,2.9-6.5,7.4-6.8l6.7-0.5V329.2z M356,331.6v-59.2h-17.4v8.5h4.7v10.7H343c-2.8-1.9-7.2-3-12-3c-10.2,0-18.7,6.7-18.7,23.7
				v4.5c0,17.1,5.8,23.6,18.2,23.6c6.4,0,10.8-1.9,13.9-5.3h0.4v4.6h15.4v-8H356z M343.4,328.6c-2.3,2.1-5.1,3.4-8.5,3.4
				c-5.8-0.1-9.4-3.2-9.4-13.4v-7.1c0-10.4,4.2-13.9,9.9-13.9c3.1,0,5.8,0.8,8,2.7V328.6z"/>
		</g>
	</g>
</g>
</svg>
