<?xml version="1.0" encoding="utf-8"?>
<!-- Generator: Adobe Illustrator 19.2.1, SVG Export Plug-In . SVG Version: 6.00 Build 0)  -->
<svg version="1.1" xmlns="http://www.w3.org/2000/svg" xmlns:xlink="http://www.w3.org/1999/xlink" x="0px" y="0px"
	 viewBox="0 0 5480 3207" style="enable-background:new 0 0 5480 3207;" xml:space="preserve">
<style type="text/css">
	.st0{fill-rule:evenodd;clip-rule:evenodd;fill:#FFF200;}
	.st1{fill:#222222;}
	.st2{enable-background:new    ;}
	.st3{fill-rule:evenodd;clip-rule:evenodd;fill:#222222;}
	.st4{fill-rule:evenodd;clip-rule:evenodd;fill:#666666;}
</style>
<g id="Group_1_1_">
	<g id="Rectangle_3">
		<g>
			
				<rect x="1104.7" y="787.8" transform="matrix(0.7159 -0.6982 0.6982 0.7159 -539.2372 1714.1741)" class="st0" width="1463.8" height="1463.7"/>
		</g>
		<g>
			<path class="st1" d="M1849.2,498.9l1008.3,1033.3L1823.9,2540.4L815.7,1507.1L1849.2,498.9 M1849.6,470.6L787.4,1506.7
				l1036.2,1061.9l1062.2-1036.1L1849.6,470.6L1849.6,470.6z"/>
		</g>
	</g>
	<g id="Rectangle_3_1_">
		<g>
			
				<rect x="2699.3" y="925.5" transform="matrix(0.3586 -0.9335 0.9335 0.3586 745.2044 3771.5225)" class="st0" width="835.4" height="836"/>
		</g>
		<g>
			<path class="st1" d="M2882.2,816.8l761.9,292.1l-292.4,761.2l-761.9-292.1L2882.2,816.8 M2870.7,791L2564,1589.6l799.3,306.4
				l306.7-798.6L2870.7,791L2870.7,791z"/>
		</g>
	</g>
	<g id="Rectangle_3_2_">
		<g>
			
				<rect x="4509.3" y="955.5" transform="matrix(0.3586 -0.9335 0.9335 0.3586 1878.2073 5480.4121)" class="st0" width="835.4" height="836"/>
		</g>
		<g>
			<path class="st1" d="M4692.2,846.8l761.9,292.1l-292.4,761.2l-761.9-292.1L4692.2,846.8 M4680.7,821L4374,1619.6l799.3,306.4
				l306.7-798.6L4680.7,821L4680.7,821z"/>
		</g>
	</g>
	<g id="Rectangle_3_3_">
		<g>
			
				<rect x="173" y="173.3" transform="matrix(0.3583 -0.9336 0.9336 0.3583 -210.7696 1135.6644)" class="st0" width="1095.6" height="1095.8"/>
		</g>
		<g>
			<path class="st1" d="M411.3,26.4l1004.4,385.4l-385.4,1004.2L25.9,1030.6L411.3,26.4 M399.8,0.5L0,1042.1l1041.8,399.7
				l399.8-1041.6L399.8,0.5L399.8,0.5z"/>
		</g>
	</g>
	<g id="Rectangle_3_4_">
		<g>
			
				<rect x="3098.7" y="1584.2" transform="matrix(0.7366 -0.6764 0.6764 0.7366 -383.7374 2805.759)" class="st0" width="622.7" height="622.5"/>
		</g>
		<g>
			<path class="st1" d="M3428.2,1469.8l407.6,443.8l-443.9,407.6l-407.6-443.8L3428.2,1469.8 M3429.4,1441.5l-473.4,434.7
				l434.6,473.3l473.4-434.7L3429.4,1441.5L3429.4,1441.5z"/>
		</g>
	</g>
	<g id="Rectangle_3_5_">
		<g>
			
				<rect x="3524.2" y="548.1" transform="matrix(0.9017 -0.4323 0.4323 0.9017 -65.345 1855.1571)" class="st0" width="1046.6" height="1046.5"/>
		</g>
		<g>
			<path class="st1" d="M4288.4,386.6l443.9,925.5L3806.6,1756l-443.9-925.5L4288.4,386.6 M4297.8,359.9L3336,821.1l461.2,961.6
				l961.8-461.1L4297.8,359.9L4297.8,359.9z"/>
		</g>
	</g>
</g>
<g id="End_of_1_" class="st2">
	<g id="End_of">
		<g>
			<path class="st3" d="M1320.5,1457.8h-73.7v-82.9h31.9v21.9h35.7v-80.6h-35.7v21.5h-31.9v-75.3h73v35.7h45.3v-71h-194.7v33.4h18.4
				v199.3h-18.4v33.4h196.3v-75.6h-46.1V1457.8z M1572.9,1325.3c0-33.4-21.9-48-53.4-48c-28.8,0-50.7,11.1-66.4,26.9h-1.5v-22.7
				h-68.4v35.7h17.3v142.5h-17.3v33.4h83.3v-33.4h-13.1v-129c11.9-8.1,27.3-12.7,39.9-12.7c18.1,0,26.9,6.1,26.9,25.7v116h-13.4
				v33.4h83v-33.4h-16.9V1325.3z M1787.2,1212.4h-72.6v35.3h19.6v44.5h-1.5c-11.9-8.1-30-12.7-50.3-12.7c-42.6,0-78,28-78,99.1v18.8
				c0,71.4,24.2,98.7,76,98.7c26.9,0,44.9-8.1,58-22.3h1.5v19.2h64.5v-33.4h-17.3V1212.4z M1734.2,1447
				c-9.6,8.8-21.1,14.2-35.7,14.2c-24.2-0.4-39.2-13.4-39.2-56.1v-29.6c0-43.4,17.7-58,41.5-58c13.1,0,24.2,3.5,33.4,11.1V1447z
				 M1982.7,1277.3c-55.3,0-94.1,33-94.1,102.9v13.8c0,70.3,38.8,102.5,94.1,102.5c55.3,0,94.5-32.3,94.5-102.5v-13.8
				C2077.2,1310.3,2037.6,1277.3,1982.7,1277.3z M2023,1402.5c0,43-15.7,57.2-40.3,57.2c-24.2,0-39.9-14.2-39.9-57.2v-28.4
				c0-43,15.7-57.6,39.9-57.6c24.6,0,40.3,14.6,40.3,57.6V1402.5z M2184.7,1244.3h18.1v-31.5c-5.4-1.5-17.7-3.5-31.5-3.5
				c-39.6,0-61.8,14.2-61.8,53v19.2h-16.9v35.7h16.9v142.5h-16.9v33.4h91.4v-33.4h-21.5v-142.5h25.7v-35.7h-25.7v-14.2
				C2162.5,1250.4,2171.3,1244.3,2184.7,1244.3z"/>
		</g>
	</g>
</g>
<g id="the_road_1_" class="st2">
	<g id="the_road_3_">
		<g>
			<path class="st3" d="M1243.7,1547.1h-52.6v44.2h-20.4v35.7h20.4v130.2c0,36.1,17.7,48.8,50.7,48.8c15,0,30.3-2.3,38.8-5.4v-31.1
				h-18.1c-13.1,0-18.8-6.1-18.8-20.4v-122.1h36.9v-35.7h-36.9V1547.1z M1482.6,1635c0-33.4-21.9-48-53.4-48
				c-28.8,0-50.7,11.1-66.4,26.9h-1.5v-91.8h-68.4v33.4h17.3v213.9h-17.3v33.4h83.3v-33.4h-13.1v-129c11.9-8.1,27.3-12.7,39.9-12.7
				c18.1,0,26.9,6.1,26.9,25.7v116h-13.4v33.4h83v-33.4h-16.9V1635z M1607.5,1587c-56.5,0-93.3,33.4-93.3,101v18.8
				c0,66.4,32.3,99.5,102.2,99.5c32.3,0,57.2-7.7,71.8-16.5v-32.3c-15.4,6.1-34.6,10.8-60.7,10.8c-37.6,0-58.8-14.6-59.5-57.6h124.8
				v-28.8C1692.7,1615.8,1660.9,1587,1607.5,1587z M1643.6,1679.6h-76.8c0-40.7,18.4-54.9,41.1-54.9c21.9,0,35.7,12.7,35.7,49.2
				V1679.6z M1847.2,1623.5h-1.5v-32.3h-68.8v35.7h18.1v142.5h-17.7v33.4h91.4v-33.4h-20.7v-113.3c13.4-11.5,38.4-19.2,58.4-19.2
				v-46.8C1880.2,1590.8,1860.2,1602.4,1847.2,1623.5z M2009.2,1587c-55.3,0-94.1,33-94.1,102.9v13.8c0,70.3,38.8,102.5,94.1,102.5
				c55.3,0,94.5-32.3,94.5-102.5v-13.8C2103.7,1620,2064.2,1587,2009.2,1587z M2049.6,1712.2c0,43-15.7,57.2-40.3,57.2
				c-24.2,0-39.9-14.2-39.9-57.2v-28.4c0-43,15.7-57.6,39.9-57.6c24.6,0,40.3,14.6,40.3,57.6V1712.2z M2284.6,1755.6v-108.7
				c0-43.4-25.3-59.9-71.1-59.9c-32.6,0-58.8,7.3-76.8,14.2v34.9c13.8-3.8,33-6.9,53-6.9c30,0,41.9,6.5,41.9,26.9v18.8l-48,7.7
				c-34.6,5.4-62.2,19.6-62.2,56.8v10.4c0,37.6,20.7,56.1,59.1,56.1c23,0,44.6-9.2,55.7-26.1h1.5c2.3,15.7,12.7,25,38.4,25
				c13.4,0,21.1-2.3,27.3-4.6v-30.7h-6.9C2288.1,1769.4,2284.6,1766.3,2284.6,1755.6z M2231.6,1759.4c-8.1,7.7-19.6,13.1-31.9,13.1
				c-17.3,0-27.3-8.4-27.3-24.6V1736c0-20,12.3-27.3,31.1-28.4l28-1.9V1759.4z M2499.3,1769.4v-247.3h-72.6v35.3h19.6v44.5h-1.5
				c-11.9-8.1-30-12.7-50.3-12.7c-42.6,0-78,28-78,99.1v18.8c0,71.4,24.2,98.7,76,98.7c26.9,0,44.9-8.1,58-22.3h1.5v19.2h64.5v-33.4
				H2499.3z M2446.3,1756.7c-9.6,8.8-21.1,14.2-35.7,14.2c-24.2-0.4-39.2-13.4-39.2-56.1v-29.6c0-43.4,17.7-58,41.5-58
				c13.1,0,24.2,3.5,33.4,11.1V1756.7z"/>
		</g>
	</g>
</g>
<g id="Will_automation_put_an_end_to_the_American_trucker_x3F__1_" class="st2">
	<g id="Will_automation_put_an_end_to_the_American_trucker_x3F_">
		<g>
			<path class="st3" d="M3179.2,1785.1h9.5l7.4-29.3h0.1l7.4,29.3h9.3l8.4-39.1h2.3v-5.6h-13.2v5.6h3.5l-5.2,25.4h-0.3l-7.9-31.1
				h-6.5l-7.9,31.1h-0.3l-5.2-25.4h3.5v-5.6h-15.7v5.6h2.4L3179.2,1785.1z M3240.2,1779.5h-3.1v-30h-12v6h3.1v24h-3.1v5.6h15.1
				V1779.5z M3237.1,1739.2h-9.1v6.8h9.1V1739.2z M3257.1,1779.5h-3v-41.6h-11.8v5.6h2.9v36h-2.9v5.6h14.8V1779.5z M3274,1779.5h-3
				v-41.6h-11.8v5.6h2.9v36h-2.9v5.6h14.8V1779.5z M3298,1785.6c3.9,0,7.5-1.6,9.4-4.4h0.3c0.4,2.6,2.1,4.2,6.5,4.2
				c2.3,0,3.6-0.4,4.6-0.8v-5.2h-1.2c-1.4,0-2-0.5-2-2.3v-18.3c0-7.3-4.3-10.1-12-10.1c-5.5,0-9.9,1.2-12.9,2.4v5.9
				c2.3-0.6,5.6-1.2,8.9-1.2c5,0,7,1.1,7,4.5v3.2l-8.1,1.3c-5.8,0.9-10.5,3.3-10.5,9.6v1.7C3288.1,1782.5,3291.6,1785.6,3298,1785.6
				z M3296.7,1773.8c0-3.4,2.1-4.6,5.2-4.8l4.7-0.3v9c-1.4,1.3-3.3,2.2-5.4,2.2c-2.9,0-4.6-1.4-4.6-4.1V1773.8z M3323,1776.8
				c0,5.7,2.7,8.9,9.4,8.9c4.7,0,8-1.7,10.7-3.9h0.3v3.3h11.6v-5.6h-3v-30h-11.8v6h2.9v21.3c-1.8,1.4-4.4,2.2-6.6,2.2
				c-3.2,0-4.6-1.3-4.6-4.5v-25h-11.8v6h2.9V1776.8z M3360.2,1777.4c0,6.1,3,8.2,8.5,8.2c2.5,0,5.1-0.4,6.5-0.9v-5.2h-3
				c-2.2,0-3.2-1-3.2-3.4v-20.5h6.2v-6h-6.2v-7.4h-8.9v7.4h-3.4v6h3.4V1777.4z M3392.9,1785.7c9.3,0,15.9-5.4,15.9-17.2v-2.3
				c0-11.8-6.7-17.3-15.9-17.3c-9.3,0-15.8,5.6-15.8,17.3v2.3C3377.1,1780.2,3383.6,1785.7,3392.9,1785.7z M3386.2,1765.1
				c0-7.2,2.6-9.7,6.7-9.7c4.1,0,6.8,2.5,6.8,9.7v4.8c0,7.2-2.6,9.6-6.8,9.6c-4.1,0-6.7-2.4-6.7-9.6V1765.1z M3425.4,1779.5h-2.1
				v-21.8c2.2-1.2,4.1-2,6.3-2c3,0,4.1,1.3,4.1,4.3v19.5h-2.1v5.6h13.1v-5.6h-2.1v-19.4c0-0.8,0-1.7-0.1-2.3
				c1.9-1.2,4.1-2.1,6.3-2.1c2.9,0,4.1,1.2,4.1,4.3v19.5h-2.1v5.6h13.8v-5.6h-2.8V1757c0-5.7-3.4-8.2-8.7-8.2c-4.8,0-8.1,1.9-11,4.5
				h-0.2c-1.2-3-4-4.5-8-4.5c-4.8,0-7.9,1.9-10.7,4.4h-0.3v-3.7h-11.5v6h2.9v24h-2.9v5.6h14V1779.5z M3477.1,1785.6
				c3.9,0,7.5-1.6,9.4-4.4h0.3c0.4,2.6,2.1,4.2,6.5,4.2c2.3,0,3.6-0.4,4.6-0.8v-5.2h-1.2c-1.4,0-2-0.5-2-2.3v-18.3
				c0-7.3-4.3-10.1-12-10.1c-5.5,0-9.9,1.2-12.9,2.4v5.9c2.3-0.6,5.6-1.2,8.9-1.2c5,0,7,1.1,7,4.5v3.2l-8.1,1.3
				c-5.8,0.9-10.5,3.3-10.5,9.6v1.7C3467.1,1782.5,3470.6,1785.6,3477.1,1785.6z M3475.7,1773.8c0-3.4,2.1-4.6,5.2-4.8l4.7-0.3v9
				c-1.4,1.3-3.3,2.2-5.4,2.2c-2.9,0-4.6-1.4-4.6-4.1V1773.8z M3502.6,1777.4c0,6.1,3,8.2,8.5,8.2c2.5,0,5.1-0.4,6.5-0.9v-5.2h-3
				c-2.2,0-3.2-1-3.2-3.4v-20.5h6.2v-6h-6.2v-7.4h-8.9v7.4h-3.4v6h3.4V1777.4z M3531.7,1739.2h-9.1v6.8h9.1V1739.2z M3534.8,1779.5
				h-3.1v-30h-12v6h3.1v24h-3.1v5.6h15.1V1779.5z M3553.2,1785.7c9.3,0,15.9-5.4,15.9-17.2v-2.3c0-11.8-6.7-17.3-15.9-17.3
				c-9.3,0-15.8,5.6-15.8,17.3v2.3C3537.4,1780.2,3543.9,1785.7,3553.2,1785.7z M3546.5,1765.1c0-7.2,2.6-9.7,6.7-9.7
				c4.1,0,6.8,2.5,6.8,9.7v4.8c0,7.2-2.6,9.6-6.8,9.6c-4.1,0-6.7-2.4-6.7-9.6V1765.1z M3585.7,1779.5h-2.2v-21.7
				c2-1.4,4.6-2.1,6.7-2.1c3,0,4.5,1,4.5,4.3v19.5h-2.3v5.6h14v-5.6h-2.8v-22.6c0-5.6-3.7-8.1-9-8.1c-4.8,0-8.5,1.9-11.2,4.5h-0.3
				v-3.8h-11.5v6h2.9v24h-2.9v5.6h14V1779.5z M3187.2,1850.7c9.9,0,14.9-5.1,14.9-16.9v-2.7c0-13.5-5.1-16.7-12.5-16.7
				c-3.9,0-7.3,1.7-9.4,4h-0.3v-3.3h-11.3v6h2.8v34.4h-2.8v5.4h15.3v-5.4h-3.7v-6.2C3181.9,1850.2,3184.8,1850.7,3187.2,1850.7z
				 M3180.3,1823.9c1.7-1.5,3.8-2.5,6-2.5c4.3,0,6.6,1.6,6.6,9.2v4.3c0,7.5-3,9.8-6.9,9.8c-2.1,0-4.2-0.3-5.7-1.4V1823.9z
				 M3227.2,1847.3h0.3v3.3h11.6v-5.6h-3v-30h-11.8v6h2.9v21.3c-1.8,1.4-4.4,2.2-6.6,2.2c-3.2,0-4.6-1.3-4.6-4.5v-25h-11.8v6h2.9
				v21.3c0,5.7,2.7,8.9,9.4,8.9C3221.1,1851.2,3224.4,1849.6,3227.2,1847.3z M3244.2,1842.9c0,6.1,3,8.2,8.5,8.2
				c2.5,0,5.1-0.4,6.5-0.9v-5.2h-3c-2.2,0-3.2-1-3.2-3.4V1821h6.2v-6h-6.2v-7.4h-8.9v7.4h-3.4v6h3.4V1842.9z M3283.8,1830.4
				c-5.8,0.9-10.5,3.3-10.5,9.6v1.7c0,6.3,3.5,9.4,9.9,9.4c3.9,0,7.5-1.6,9.4-4.4h0.3c0.4,2.6,2.1,4.2,6.5,4.2
				c2.3,0,3.6-0.4,4.6-0.8v-5.2h-1.2c-1.4,0-2-0.5-2-2.3v-18.3c0-7.3-4.3-10.1-12-10.1c-5.5,0-9.9,1.2-12.9,2.4v5.9
				c2.3-0.6,5.6-1.2,8.9-1.2c5,0,7,1.1,7,4.5v3.2L3283.8,1830.4z M3291.8,1843.3c-1.4,1.3-3.3,2.2-5.4,2.2c-2.9,0-4.6-1.4-4.6-4.1
				v-2c0-3.4,2.1-4.6,5.2-4.8l4.7-0.3V1843.3z M3340.7,1845h-2.8v-22.6c0-5.6-3.7-8.1-9-8.1c-4.8,0-8.5,1.9-11.2,4.5h-0.3v-3.8H3306
				v6h2.9v24h-2.9v5.6h14v-5.6h-2.2v-21.7c2-1.4,4.6-2.1,6.7-2.1c3,0,4.5,1,4.5,4.3v19.5h-2.3v5.6h14V1845z M3384.9,1830.2
				c0-11.1-5.4-16-14.3-16c-9.5,0-15.7,5.6-15.7,17v3.2c0,11.2,5.4,16.7,17.2,16.7c5.4,0,9.6-1.3,12.1-2.8v-5.4
				c-2.6,1-5.8,1.8-10.2,1.8c-6.3,0-9.9-2.5-10-9.7h21V1830.2z M3376.6,1829.9h-12.9c0-6.8,3.1-9.2,6.9-9.2c3.7,0,6,2.1,6,8.3
				V1829.9z M3399,1818.8v-3.8h-11.5v6h2.9v24h-2.9v5.6h14v-5.6h-2.2v-21.7c2-1.4,4.6-2.1,6.7-2.1c3,0,4.5,1,4.5,4.3v19.5h-2.3v5.6
				h14v-5.6h-2.8v-22.6c0-5.6-3.7-8.1-9-8.1c-4.8,0-8.5,1.9-11.2,4.5H3399z M3458.3,1850.6v-5.6h-2.9v-41.6h-12.2v5.9h3.3v7.5h-0.3
				c-2-1.4-5-2.1-8.5-2.1c-7.2,0-13.1,4.7-13.1,16.7v3.2c0,12,4.1,16.6,12.8,16.6c4.5,0,7.6-1.4,9.8-3.7h0.3v3.2H3458.3z
				 M3446.5,1842.8c-1.6,1.5-3.6,2.4-6,2.4c-4.1-0.1-6.6-2.3-6.6-9.4v-5c0-7.3,3-9.8,7-9.8c2.2,0,4.1,0.6,5.6,1.9V1842.8z
				 M3475.5,1842.9c0,6.1,3,8.2,8.5,8.2c2.5,0,5.1-0.4,6.5-0.9v-5.2h-3c-2.2,0-3.2-1-3.2-3.4V1821h6.2v-6h-6.2v-7.4h-8.9v7.4h-3.4v6
				h3.4V1842.9z M3492.4,1831.6v2.3c0,11.8,6.5,17.2,15.8,17.2s15.9-5.4,15.9-17.2v-2.3c0-11.8-6.7-17.3-15.9-17.3
				C3498.9,1814.3,3492.4,1819.9,3492.4,1831.6z M3515,1830.6v4.8c0,7.2-2.6,9.6-6.8,9.6c-4.1,0-6.7-2.4-6.7-9.6v-4.8
				c0-7.2,2.6-9.7,6.7-9.7C3512.3,1820.9,3515,1823.3,3515,1830.6z M3556.8,1821v-6h-6.2v-7.4h-8.9v7.4h-3.4v6h3.4v21.9
				c0,6.1,3,8.2,8.5,8.2c2.5,0,5.1-0.4,6.5-0.9v-5.2h-3c-2.2,0-3.2-1-3.2-3.4V1821H3556.8z M3558.9,1803.4v5.6h2.9v36h-2.9v5.6h14
				v-5.6h-2.2v-21.7c2-1.4,4.6-2.1,6.7-2.1c3,0,4.5,1,4.5,4.3v19.5h-2.3v5.6h14v-5.6h-2.8v-22.6c0-5.6-3.7-8.1-9-8.1
				c-4.8,0-8.5,1.9-11.2,4.5h-0.3v-15.4H3558.9z M3596.1,1831.3v3.2c0,11.2,5.4,16.7,17.2,16.7c5.4,0,9.6-1.3,12.1-2.8v-5.4
				c-2.6,1-5.8,1.8-10.2,1.8c-6.3,0-9.9-2.5-10-9.7h21v-4.8c0-11.1-5.4-16-14.3-16C3602.3,1814.3,3596.1,1819.9,3596.1,1831.3z
				 M3611.8,1820.6c3.7,0,6,2.1,6,8.3v1h-12.9C3604.9,1823,3608,1820.6,3611.8,1820.6z M3194,1871.3h-10.3l-12.7,39.1h-2.4v5.6h13.1
				v-5.6h-3.4l2.3-7.7h13.2l2.3,7.7h-3.5v5.6h16.3v-5.6h-2.3L3194,1871.3z M3182.2,1897.3l4.9-16.5h0.3l4.8,16.5H3182.2z
				 M3261.2,1888c0-5.7-3.4-8.2-8.7-8.2c-4.8,0-8.1,1.9-11,4.5h-0.2c-1.2-3-4-4.5-8-4.5c-4.8,0-7.9,1.9-10.7,4.4h-0.3v-3.7h-11.5v6
				h2.9v24h-2.9v5.6h14v-5.6h-2.1v-21.8c2.2-1.2,4.1-2,6.3-2c3,0,4.1,1.3,4.1,4.3v19.5h-2.1v5.6h13.1v-5.6h-2.1v-19.4
				c0-0.8,0-1.7-0.1-2.3c1.9-1.2,4.1-2.1,6.3-2.1c2.9,0,4.1,1.2,4.1,4.3v19.5h-2.1v5.6h13.8v-5.6h-2.8V1888z M3282.3,1879.8
				c-9.5,0-15.7,5.6-15.7,17v3.2c0,11.2,5.4,16.7,17.2,16.7c5.4,0,9.6-1.3,12.1-2.8v-5.4c-2.6,1-5.8,1.8-10.2,1.8
				c-6.3,0-9.9-2.5-10-9.7h21v-4.8C3296.6,1884.6,3291.3,1879.8,3282.3,1879.8z M3288.3,1895.4h-12.9c0-6.8,3.1-9.2,6.9-9.2
				c3.7,0,6,2.1,6,8.3V1895.4z M3311,1885.9h-0.3v-5.4h-11.6v6h3v24h-3v5.6h15.4v-5.6h-3.5v-19.1c2.3-1.9,6.5-3.2,9.8-3.2v-7.9
				C3316.5,1880.4,3313.2,1882.4,3311,1885.9z M3334.9,1880.5h-12v6h3.1v24h-3.1v5.6h15.1v-5.6h-3.1V1880.5z M3325.8,1877h9.1v-6.8
				h-9.1V1877z M3349.7,1899.8v-4.3c0-7.4,3.9-9.4,7.8-9.4c1.7,0,2.9,0.3,3.9,0.6v4.8h6.5v-10.1c-2.1-0.8-6.9-1.5-11.1-1.5
				c-9.1,0-16.2,4.9-16.2,17.1v3.5c0,10.4,6.2,16.3,16.3,16.3c5,0,8.7-1.2,11.1-2.7v-5.4c-2,1-5.2,1.8-8.5,1.8
				C3353.7,1910.4,3349.7,1907.8,3349.7,1899.8z M3398.4,1908.2v-18.3c0-7.3-4.3-10.1-12-10.1c-5.5,0-9.9,1.2-12.9,2.4v5.9
				c2.3-0.6,5.6-1.2,8.9-1.2c5,0,7,1.1,7,4.5v3.2l-8.1,1.3c-5.8,0.9-10.5,3.3-10.5,9.6v1.7c0,6.3,3.5,9.4,9.9,9.4
				c3.9,0,7.5-1.6,9.4-4.4h0.3c0.4,2.6,2.1,4.2,6.5,4.2c2.3,0,3.6-0.4,4.6-0.8v-5.2h-1.2C3399,1910.5,3398.4,1910,3398.4,1908.2z
				 M3389.5,1908.8c-1.4,1.3-3.3,2.2-5.4,2.2c-2.9,0-4.6-1.4-4.6-4.1v-2c0-3.4,2.1-4.6,5.2-4.8l4.7-0.3V1908.8z M3435.6,1887.9
				c0-5.6-3.7-8.1-9-8.1c-4.8,0-8.5,1.9-11.2,4.5h-0.3v-3.8h-11.5v6h2.9v24h-2.9v5.6h14v-5.6h-2.2v-21.7c2-1.4,4.6-2.1,6.7-2.1
				c3,0,4.5,1,4.5,4.3v19.5h-2.3v5.6h14v-5.6h-2.8V1887.9z M3464.3,1873.1h-8.9v7.4h-3.4v6h3.4v21.9c0,6.1,3,8.2,8.5,8.2
				c2.5,0,5.1-0.4,6.5-0.9v-5.2h-3c-2.2,0-3.2-1-3.2-3.4v-20.5h6.2v-6h-6.2V1873.1z M3484.4,1885.9h-0.3v-5.4h-11.6v6h3v24h-3v5.6
				h15.4v-5.6h-3.5v-19.1c2.3-1.9,6.5-3.2,9.8-3.2v-7.9C3489.9,1880.4,3486.6,1882.4,3484.4,1885.9z M3528.2,1880.5h-11.8v6h2.9
				v21.3c-1.8,1.4-4.4,2.2-6.6,2.2c-3.2,0-4.6-1.3-4.6-4.5v-25h-11.8v6h2.9v21.3c0,5.7,2.7,8.9,9.4,8.9c4.7,0,8-1.7,10.7-3.9h0.3
				v3.3h11.6v-5.6h-3V1880.5z M3542.8,1899.8v-4.3c0-7.4,3.9-9.4,7.8-9.4c1.7,0,2.9,0.3,3.9,0.6v4.8h6.5v-10.1
				c-2.1-0.8-6.9-1.5-11.1-1.5c-9.1,0-16.2,4.9-16.2,17.1v3.5c0,10.4,6.2,16.3,16.3,16.3c5,0,8.7-1.2,11.1-2.7v-5.4
				c-2,1-5.2,1.8-8.5,1.8C3546.8,1910.4,3542.8,1907.8,3542.8,1899.8z M3585.2,1895.1l8.6-8.6h2.6v-6H3583v6h3l-10.4,10.7v-28.3
				h-11.8v5.6h2.9v36h-2.9v5.6h14.3v-5.6h-2.5v-6.9l3.1-2.8l9,15.4h9.2v-5.6h-2.5L3585.2,1895.1z M3614.1,1879.8
				c-9.5,0-15.7,5.6-15.7,17v3.2c0,11.2,5.4,16.7,17.2,16.7c5.4,0,9.6-1.3,12.1-2.8v-5.4c-2.6,1-5.8,1.8-10.2,1.8
				c-6.3,0-9.9-2.5-10-9.7h21v-4.8C3628.4,1884.6,3623.1,1879.8,3614.1,1879.8z M3620.2,1895.4h-12.9c0-6.8,3.1-9.2,6.9-9.2
				c3.7,0,6,2.1,6,8.3V1895.4z M3642.8,1885.9h-0.3v-5.4H3631v6h3v24h-3v5.6h15.4v-5.6h-3.5v-19.1c2.3-1.9,6.5-3.2,9.8-3.2v-7.9
				C3648.3,1880.4,3645,1882.4,3642.8,1885.9z M3665.9,1870.8c-5,0-8.3,0.7-11.3,2.4v5.8c2.5-1,4.8-1.3,7.5-1.3
				c4.1,0,6.8,0.9,6.8,4.8v1c0,3.8-2.1,5.4-4.9,7.5c-3.9,3-4.8,5.6-4.8,9.7v2.9h7.5v-1.9c0-3.5,1.4-5.1,4.9-7.4
				c4.2-2.8,7-5.4,7-11.3v-1.7C3678.6,1873.5,3673.1,1870.8,3665.9,1870.8z M3658.7,1916.1h8.1v-7.9h-8.1V1916.1z"/>
		</g>
	</g>
</g>
<g id="Dominic_Rushe_in_Walcott_x2C__Iowa_1_" class="st2">
	<g id="Dominic_Rushe_in_Walcott_x2C__Iowa">
		<g>
			<path class="st4" d="M3207.5,1969.6v-3.9c0-14.2-6.5-20.4-19.8-20.4h-18.9v5.6h3.1v33.5h-3.1v5.6h19.3
				C3201.2,1990.1,3207.5,1983.9,3207.5,1969.6z M3181.7,1984.1v-32.7h5.7c6.4,0,9.9,2.6,9.9,11.9v8.5c0,9.5-3.6,12.3-9.9,12.3
				H3181.7z M3226.6,1990.7c9.3,0,15.9-5.4,15.9-17.2v-2.3c0-11.8-6.7-17.3-15.9-17.3c-9.3,0-15.8,5.6-15.8,17.3v2.3
				C3210.8,1985.2,3217.3,1990.7,3226.6,1990.7z M3219.9,1970.1c0-7.2,2.6-9.7,6.7-9.7c4.1,0,6.8,2.5,6.8,9.7v4.8
				c0,7.2-2.6,9.6-6.8,9.6c-4.1,0-6.7-2.4-6.7-9.6V1970.1z M3259.1,1984.5h-2.1v-21.8c2.2-1.2,4.1-2,6.3-2c3,0,4.1,1.3,4.1,4.3v19.5
				h-2.1v5.6h13.1v-5.6h-2.1v-19.4c0-0.8,0-1.7-0.1-2.3c1.9-1.2,4.1-2.1,6.3-2.1c2.9,0,4.1,1.2,4.1,4.3v19.5h-2.1v5.6h13.8v-5.6
				h-2.8V1962c0-5.7-3.4-8.2-8.7-8.2c-4.8,0-8.1,1.9-11,4.5h-0.2c-1.2-3-4-4.5-8-4.5c-4.8,0-7.9,1.9-10.7,4.4h-0.3v-3.7h-11.5v6h2.9
				v24h-2.9v5.6h14V1984.5z M3312.4,1944.2h-9.1v6.8h9.1V1944.2z M3315.5,1984.5h-3.1v-30h-12v6h3.1v24h-3.1v5.6h15.1V1984.5z
				 M3340.7,1965v19.5h-2.3v5.6h14v-5.6h-2.8v-22.6c0-5.6-3.7-8.1-9-8.1c-4.8,0-8.5,1.9-11.2,4.5h-0.3v-3.8h-11.5v6h2.9v24h-2.9v5.6
				h14v-5.6h-2.2v-21.7c2-1.4,4.6-2.1,6.7-2.1C3339.3,1960.6,3340.7,1961.7,3340.7,1965z M3369.6,1984.5h-3.1v-30h-12v6h3.1v24h-3.1
				v5.6h15.1V1984.5z M3366.5,1944.2h-9.1v6.8h9.1V1944.2z M3381.3,1973.7v-4.3c0-7.4,3.9-9.4,7.8-9.4c1.7,0,2.9,0.3,3.9,0.6v4.8
				h6.5v-10.1c-2.1-0.8-6.9-1.5-11.1-1.5c-9.1,0-16.2,4.9-16.2,17.1v3.5c0,10.4,6.2,16.3,16.3,16.3c5,0,8.7-1.2,11.1-2.7v-5.4
				c-2,1-5.2,1.8-8.5,1.8C3385.2,1984.3,3381.3,1981.8,3381.3,1973.7z M3430,1984.5h-3.2v-12.7h5l9.4,18.3h10.3v-5.6h-2.4l-7.9-14.9
				c5.1-1.6,7.2-5.7,7.2-11v-1.6c0-6.5-3.7-11.7-14.9-11.7h-19.6v5.6h3.1v33.5h-3.1v5.6h16.1V1984.5z M3426.9,1951.2h4.6
				c5.2,0,7.2,1.6,7.2,6.3v2.3c0,4.8-2.5,6.6-7,6.6h-4.7V1951.2z M3455.7,1981.8c0,5.7,2.7,8.9,9.4,8.9c4.7,0,8-1.7,10.7-3.9h0.3
				v3.3h11.6v-5.6h-3v-30h-11.8v6h2.9v21.3c-1.8,1.4-4.4,2.2-6.6,2.2c-3.2,0-4.6-1.3-4.6-4.5v-25h-11.8v6h2.9V1981.8z
				 M3515.6,1979.3c0-6.1-3.3-8.8-9.3-10.4l-3.2-0.9c-3.6-1-5-1.8-5-4.7c0-2.5,1.6-3.9,5.3-3.9c2.1,0,3.2,0.2,4.1,0.5v3.3h6.5v-8.1
				c-2.5-1-6.2-1.4-10.4-1.4c-9.9,0-13.5,4.3-13.5,10.5c0,5.8,2.5,9.1,8.6,10.7l3.2,0.8c3.3,0.8,5,1.8,5,4.8c0,2.8-1.9,4.5-5.9,4.5
				c-2,0-3.4-0.2-4.5-0.6v-3.6h-6.7v8.3c2.6,0.8,6.7,1.4,11.4,1.4C3510.8,1990.7,3515.6,1986.7,3515.6,1979.3z M3549.8,1961.9
				c0-5.6-3.7-8.1-9-8.1c-4.8,0-8.5,1.9-11.2,4.5h-0.3v-15.4h-11.5v5.6h2.9v36h-2.9v5.6h14v-5.6h-2.2v-21.7c2-1.4,4.6-2.1,6.7-2.1
				c3,0,4.5,1,4.5,4.3v19.5h-2.3v5.6h14v-5.6h-2.8V1961.9z M3570.8,1953.8c-9.5,0-15.7,5.6-15.7,17v3.2c0,11.2,5.4,16.7,17.2,16.7
				c5.4,0,9.6-1.3,12.1-2.8v-5.4c-2.6,1-5.8,1.8-10.2,1.8c-6.3,0-9.9-2.5-10-9.7h21v-4.8C3585.2,1958.6,3579.8,1953.8,3570.8,1953.8
				z M3576.9,1969.4H3564c0-6.8,3.1-9.2,6.9-9.2c3.7,0,6,2.1,6,8.3V1969.4z M3611.4,1944.2h-9.1v6.8h9.1V1944.2z M3611.4,1954.5h-12
				v6h3.1v24h-3.1v5.6h15.1v-5.6h-3.1V1954.5z M3648.5,1984.5v-22.6c0-5.6-3.7-8.1-9-8.1c-4.8,0-8.5,1.9-11.2,4.5h-0.3v-3.8h-11.5v6
				h2.9v24h-2.9v5.6h14v-5.6h-2.2v-21.7c2-1.4,4.6-2.1,6.7-2.1c3,0,4.5,1,4.5,4.3v19.5h-2.3v5.6h14v-5.6H3648.5z M3223.6,2010.8
				h-13.2v5.6h3.5l-5.2,25.4h-0.3l-7.9-31.1h-6.5l-7.9,31.1h-0.3l-5.2-25.4h3.5v-5.6h-15.7v5.6h2.4l8.4,39.1h9.5l7.4-29.3h0.1
				l7.4,29.3h9.3l8.4-39.1h2.3V2010.8z M3250.7,2047.7v-18.3c0-7.3-4.3-10.1-12-10.1c-5.5,0-9.9,1.2-12.9,2.4v5.9
				c2.3-0.6,5.6-1.2,8.9-1.2c5,0,7,1.1,7,4.5v3.2l-8.1,1.3c-5.8,0.9-10.5,3.3-10.5,9.6v1.7c0,6.3,3.5,9.4,9.9,9.4
				c3.9,0,7.5-1.6,9.4-4.4h0.3c0.4,2.6,2.1,4.2,6.5,4.2c2.3,0,3.6-0.4,4.6-0.8v-5.2h-1.2C3251.3,2050,3250.7,2049.5,3250.7,2047.7z
				 M3241.8,2048.3c-1.4,1.3-3.3,2.2-5.4,2.2c-2.9,0-4.6-1.4-4.6-4.1v-2c0-3.4,2.1-4.6,5.2-4.8l4.7-0.3V2048.3z M3267.7,2008.4
				h-11.8v5.6h2.9v36h-2.9v5.6h14.8v-5.6h-3V2008.4z M3282.3,2039.3v-4.3c0-7.4,3.9-9.4,7.8-9.4c1.7,0,2.9,0.3,3.9,0.6v4.8h6.5
				v-10.1c-2.1-0.8-6.9-1.5-11.1-1.5c-9.1,0-16.2,4.9-16.2,17.1v3.5c0,10.4,6.2,16.3,16.3,16.3c5,0,8.7-1.2,11.1-2.7v-5.4
				c-2,1-5.2,1.8-8.5,1.8C3286.3,2049.8,3282.3,2047.3,3282.3,2039.3z M3319.2,2019.3c-9.3,0-15.8,5.6-15.8,17.3v2.3
				c0,11.8,6.5,17.2,15.8,17.2s15.9-5.4,15.9-17.2v-2.3C3335.1,2024.9,3328.4,2019.3,3319.2,2019.3z M3325.9,2040.4
				c0,7.2-2.6,9.6-6.8,9.6c-4.1,0-6.7-2.4-6.7-9.6v-4.8c0-7.2,2.6-9.7,6.7-9.7c4.1,0,6.8,2.5,6.8,9.7V2040.4z M3349.3,2012.6h-8.9
				v7.4h-3.4v6h3.4v21.9c0,6.1,3,8.2,8.5,8.2c2.5,0,5.1-0.4,6.5-0.9v-5.2h-3c-2.2,0-3.2-1-3.2-3.4V2026h6.2v-6h-6.2V2012.6z
				 M3369.8,2012.6h-8.9v7.4h-3.4v6h3.4v21.9c0,6.1,3,8.2,8.5,8.2c2.5,0,5.1-0.4,6.5-0.9v-5.2h-3c-2.2,0-3.2-1-3.2-3.4V2026h6.2v-6
				h-6.2V2012.6z M3379.1,2055.6h3.7c-0.2,2.7-1.5,4.4-4.2,5.1v3.8c5.8-0.9,8.9-3.6,8.9-10.9v-6.5h-8.5V2055.6z M3402.5,2016.5h3.3
				v33.5h-3.3v5.6h16.4v-5.6h-3.2v-33.5h3.2v-5.6h-16.4V2016.5z M3436.9,2019.3c-9.3,0-15.8,5.6-15.8,17.3v2.3
				c0,11.8,6.5,17.2,15.8,17.2c9.3,0,15.9-5.4,15.9-17.2v-2.3C3452.8,2024.9,3446.2,2019.3,3436.9,2019.3z M3443.7,2040.4
				c0,7.2-2.6,9.6-6.8,9.6c-4.1,0-6.7-2.4-6.7-9.6v-4.8c0-7.2,2.6-9.7,6.7-9.7c4.1,0,6.8,2.5,6.8,9.7V2040.4z M3491.3,2026h2.5
				l-4,19.3h-0.2l-6.2-25.3h-7.4l-6.2,25.3h-0.1l-4.1-19.3h2.5v-6h-13.7v6h1.9l7,29.6h9.9l5.6-22.2h0.1l5.6,22.2h9.5l7.3-29.6h1.9
				v-6h-11.8V2026z M3531.6,2047.7v-18.3c0-7.3-4.3-10.1-12-10.1c-5.5,0-9.9,1.2-12.9,2.4v5.9c2.3-0.6,5.6-1.2,8.9-1.2
				c5,0,7,1.1,7,4.5v3.2l-8.1,1.3c-5.8,0.9-10.5,3.3-10.5,9.6v1.7c0,6.3,3.5,9.4,9.9,9.4c3.9,0,7.5-1.6,9.4-4.4h0.3
				c0.4,2.6,2.1,4.2,6.5,4.2c2.3,0,3.6-0.4,4.6-0.8v-5.2h-1.2C3532.2,2050,3531.6,2049.5,3531.6,2047.7z M3522.7,2048.3
				c-1.4,1.3-3.3,2.2-5.4,2.2c-2.9,0-4.6-1.4-4.6-4.1v-2c0-3.4,2.1-4.6,5.2-4.8l4.7-0.3V2048.3z"/>
		</g>
	</g>
</g>
</svg>
