<?xml version="1.0" encoding="utf-8"?>
<!-- Generator: Adobe Illustrator 19.2.1, SVG Export Plug-In . SVG Version: 6.00 Build 0)  -->
<svg version="1.1" id="Layer_1" xmlns="http://www.w3.org/2000/svg" xmlns:xlink="http://www.w3.org/1999/xlink" x="0px" y="0px"
	 viewBox="0 0 136 80.5" style="enable-background:new 0 0 136 80.5;" xml:space="preserve">
<style type="text/css">
	.st0{fill:#4BC6DF;}
</style>
<g>
	<path class="st0" d="M37.6,23.7C29.4,23.6,22,27,16.7,32.4c-0.3-1.9-0.5-3.9-0.4-6c0.3-14.2,13.3-23.2,28-23L41.8,0
		C18.8-1.1,0.4,16.9,0,39.3s13,40.8,36,41.2v-0.1c0.2,0,0.4,0.1,0.6,0.1c15.7,0.3,28.6-12.2,28.9-27.9S53.3,24,37.6,23.7"/>
	<path class="st0" d="M108.1,23.7c-8.2-0.1-15.6,3.3-20.9,8.7c-0.3-1.9-0.5-3.9-0.4-6c0.3-14.2,13.3-23.2,28-23L112.3,0
		c-23-1.2-41.4,16.8-41.8,39.2c-0.4,22.4,13,40.8,36,41.2v-0.1c0.2,0,0.4,0.1,0.6,0.1c15.7,0.3,28.6-12.2,28.9-27.9
		C136.3,36.9,123.8,24,108.1,23.7"/>
</g>
</svg>
